<?xml version="1.0" encoding="utf-8"?>
<!-- Svg Vector Icons : http://www.onlinewebfonts.com/icon -->
<!DOCTYPE svg PUBLIC "-//W3C//DTD SVG 1.1//EN" "http://www.w3.org/Graphics/SVG/1.1/DTD/svg11.dtd">
<svg version="1.1" xmlns="http://www.w3.org/2000/svg" xmlns:xlink="http://www.w3.org/1999/xlink" x="0px" y="0px" viewBox="0 0 1000 1000" enable-background="new 0 0 1000 1000" xml:space="preserve">
<metadata> Svg Vector Icons : http://www.onlinewebfonts.com/icon </metadata>
<g><g transform="translate(0.000000,418.000000) scale(0.100000,-0.100000)"><path d="M394.8,3144c-116.8-53.6-208.6-143.6-254.6-248.8l-40.2-95.7L103.8-843c5.7-3460.6,7.7-3646.3,40.2-3711.4c47.9-95.7,141.7-187.6,233.5-229.7c72.7-34.5,235.4-36.4,3795.6-36.4c3296,0,3726.7,3.8,3787.9,28.7c105.3,44,193.3,118.7,233.5,197.1C8257.7-4468.2,9900,52.8,9900,102.6c0,91.9-57.4,239.3-126.3,317.7c-109.1,126.3-155,143.6-444.1,153.1L9075,583l1.9,666.1c1.9,687.1,0,723.5-76.6,763.7c-23,13.4-794.3,19.1-2300.7,19.1H4435.4l-390.5,545.5c-214.4,300.5-407.7,558.9-428.7,574.2c-36.4,24.9-250.7,28.7-1592.5,28.7C557.5,3180.4,469.4,3178.5,394.8,3144z M3725.2,2464.5c153.1-216.3,279.5-400,279.5-409.6s-511.1-17.2-1171.4-17.2l-1169.5-1.9l-537.9-537.9L588.1,960.1l-9.6-2005.9l-9.6-2004l-70.8-172.3l-70.8-172.3v3095c-1.9,2788.8,1.9,3096.9,28.7,3123.7c26.8,26.8,189.5,30.6,1510.2,30.6h1479.6L3725.2,2464.5z M8751.6,1141.9V577.3h-650.8H7450v266.1c0,254.6-1.9,269.9-45.9,319.6c-63.2,74.6-170.3,74.6-233.5,0c-44-49.8-45.9-65.1-45.9-319.6V577.3h-411.5h-411.5V851c0,260.3-1.9,277.5-42.1,313.9c-24.9,21-63.2,45.9-86.1,51.7c-57.4,17.2-155-36.4-178-95.7c-11.5-26.8-19.1-160.8-19.1-296.7V577.3h-411.5h-411.5v269.9c0,147.4-7.7,285.2-19.1,304.3c-30.6,57.4-126.3,80.4-201,49.8c-51.7-21.1-68.9-44-86.1-105.3c-11.5-42.1-15.3-111-7.7-153.1c7.7-42.1,5.7-141.6-1.9-222l-13.4-143.6h-400h-400v246.9c0,135.9-7.7,269.9-19.1,296.7c-23,59.3-120.6,112.9-178,95.7c-23-5.7-61.3-30.6-84.2-51.7c-42.1-36.4-44-53.6-44-313.9V577.3h-411.5h-411.5v266.1c0,254.6-1.9,269.9-45.9,319.6c-63.2,74.6-170.3,74.6-233.5,0c-44-49.8-45.9-65.1-45.9-317.7V581.1l-233.5-7.7c-179.9-5.7-250.7-15.3-302.4-42.1c-86.1-45.9-168.4-120.6-204.8-191.4c-15.3-30.6-216.3-568.5-444.1-1196.3c-229.7-627.8-423-1154.2-428.7-1169.5c-5.7-15.3-11.5,597.2-11.5,1364.7L923,730.4h432.6h432.6l55.5,55.5l55.5,55.5V1274v432.6h3426.2h3426.2V1141.9z M1573.8,1266.3v-210.5h-214.4h-216.3l210.5,210.5c114.8,116.8,212.5,210.5,214.4,210.5C1571.9,1476.9,1573.8,1383.1,1573.8,1266.3z M9561.2,175.3c15.3-40.2-134-461.3-823-2354.3L7896-4485.4l-3692.2-5.7c-2030.8-1.9-3711.4,0-3734.3,5.7c-30.6,7.7-44,24.9-44,53.6c0,23,124.4,382.8,277.5,798.2s534,1456.6,846,2312.2l566.6,1554.2l3715.2-3.8l3715.2-5.7L9561.2,175.3z"/></g></g>
</svg>