<?xml version="1.0" encoding="utf-8"?>
<!-- Svg Vector Icons : http://www.onlinewebfonts.com/icon -->
<!DOCTYPE svg PUBLIC "-//W3C//DTD SVG 1.1//EN" "http://www.w3.org/Graphics/SVG/1.1/DTD/svg11.dtd">
<svg version="1.1" xmlns="http://www.w3.org/2000/svg" xmlns:xlink="http://www.w3.org/1999/xlink" x="0px" y="0px" viewBox="0 0 1000 1000" enable-background="new 0 0 1000 1000" xml:space="preserve">
<metadata> Svg Vector Icons : http://www.onlinewebfonts.com/icon </metadata>
<g><g transform="translate(0.000000,512.000000) scale(0.100000,-0.100000)"><path d="M1792,4976c-44-38.3-53.6-65.1-61.2-162.7l-7.7-118.7h-172.3c-178,0-268-26.8-290.9-86.1c-5.7-17.2-11.5-78.5-11.5-135.9v-103.4h-193.3c-187.6,0-193.3-1.9-248.8-55.5l-55.5-55.5v-518.7v-518.7H624.5c-70.8,0-160.8-9.6-202.9-23c-105.3-30.6-231.6-149.3-281.4-262.2l-40.2-95.7l3.8-3642.5c5.7-3533.4,7.7-3644.4,42.1-3715.2c47.9-97.6,135.9-183.8,231.6-225.8c72.7-34.5,235.4-36.4,3795.6-36.4c3296,0,3726.7,3.8,3787.9,28.7c105.3,44,193.3,118.7,233.5,197.1C8255.8-4431.6,9900,95.1,9900,143c0,179.9-160.8,411.5-315.8,453.6c-42.1,11.5-206.7,21.1-367.5,21.1h-290.9l-5.7,560.8c-5.7,532.1-7.6,562.7-47.9,637.4c-47.9,91.9-158.9,193.3-246.9,229.7c-36.4,15.3-128.3,26.8-206.7,26.8H8273l-3.8,1427.9l-5.7,1427.9l-53.6,45.9l-53.6,45.9H5000H1843.7L1792,4976z M7941.9,2661.9c-7.7-1115.9-15.3-2034.6-19.1-2036.6c-3.8-3.8-1320.7-9.6-2928.5-11.5l-2922.8-5.7v1942.8c0,1068-5.7,1988.7-11.5,2044.2l-13.4,99.5H5000h2953.4L7941.9,2661.9z M1727,2275.2v-2094L1658-6.3c-36.4-103.4-70.8-193.3-76.6-197.2c-3.8-3.8-7.7,1022.1-7.7,2281.6v2291.1h76.6h76.6V2275.2z M1238.9,1440.7v-2593.6l-74.6-206.7c-40.2-112.9-76.6-204.8-80.4-204.8c-3.8,0-7.7,1263.3-7.7,2806v2804.1l82.3-5.7l80.4-5.7V1440.7z M750.8,204.2V-2485l-155-424.9c-84.2-233.5-158.9-428.7-162.7-432.6c-3.8-3.8-7.7,1383.9-7.7,3085.5c0,2785,3.8,3095,30.6,3121.8c21.1,23,67,30.6,162.7,30.6h132.1V204.2z M8579.3,1697.2c11.5-26.8,19.1-275.6,19.1-564.6V617.7h-162.7H8273v564.6V1747h143.6C8554.4,1747,8562.1,1745,8579.3,1697.2z M9511.4,280.8c24.9-7.7,45.9-32.5,53.6-65.1c9.6-40.2-185.7-595.3-828.8-2356.2L7896-4445l-3692.2-5.7c-2030.8-1.9-3711.4,0-3734.3,5.7c-30.6,7.7-44,24.9-44,53.6c0,23,141.6,430.7,315.8,903.4c174.2,474.7,555.1,1514,846,2310.3l528.3,1450.9l3351.5,5.7c1843.2,1.9,3498.9,5.7,3676.9,7.7C9323.9,290.4,9488.5,286.5,9511.4,280.8z"/><path d="M2971.1,3693.6c-103.4-51.7-120.6-179.9-38.3-262.2c36.4-36.4,67-38.3,916.8-38.3c859.4,0,878.5,0,928.3,40.2c36.4,28.7,49.8,57.4,49.8,103.4c0,185.7,15.3,181.8-970.4,181.8C3225.7,3718.4,3007.5,3712.7,2971.1,3693.6z"/><path d="M2930.9,2514.5c-32.5-34.5-55.5-76.6-55.5-107.2s23-72.7,55.5-107.2l55.5-55.5H5000h2013.6l55.5,55.5c72.8,72.7,72.8,141.6,0,214.4l-55.5,55.5H5000H2986.4L2930.9,2514.5z"/><path d="M2932.8,1383.3c-82.3-82.3-65.1-210.5,38.3-262.2c68.9-34.4,3988.9-34.4,4057.8,0c103.4,51.7,120.6,179.9,38.3,262.2c-38.3,38.3-72.7,38.3-2067.2,38.3C3005.5,1421.6,2971.1,1421.6,2932.8,1383.3z"/></g></g>
</svg>