<?xml version="1.0" encoding="utf-8"?>
<!-- Svg Vector Icons : http://www.onlinewebfonts.com/icon -->
<!DOCTYPE svg PUBLIC "-//W3C//DTD SVG 1.1//EN" "http://www.w3.org/Graphics/SVG/1.1/DTD/svg11.dtd">
<svg version="1.1" xmlns="http://www.w3.org/2000/svg" xmlns:xlink="http://www.w3.org/1999/xlink" x="0px" y="0px" viewBox="0 0 1000 1000" enable-background="new 0 0 1000 1000" xml:space="preserve">
<metadata> Svg Vector Icons : http://www.onlinewebfonts.com/icon </metadata>
<g><path d="M678.2,900.9h222.7V678.2H678.2V900.9z M722.7,722.7h133.6v133.6H722.7V722.7z M99.1,900.9h222.7V678.2H99.1V900.9z M143.6,722.7h133.6v133.6H143.6V722.7z M900.9,10H99.1C49.9,10,10,49.9,10,99.1v801.8c0,49.2,39.9,89.1,89.1,89.1h801.8c49.2,0,89.1-39.9,89.1-89.1V99.1C990,49.9,950.1,10,900.9,10 M945.5,900.9c0,24.6-20,44.5-44.5,44.5H99.1c-24.6,0-44.5-20-44.5-44.5V99.1c0-24.6,19.9-44.5,44.5-44.5h801.8c24.6,0,44.5,20,44.5,44.5V900.9z M99.1,321.8h222.7V99.1H99.1V321.8z M143.6,143.6h133.6v133.6H143.6V143.6z M99.1,611.4h222.7V388.6H99.1V611.4z M143.6,433.2h133.6v133.6H143.6V433.2z M388.6,321.8h222.7V99.1H388.6V321.8z M433.2,143.6h133.6v133.6H433.2V143.6z M678.2,611.4h222.7V388.6H678.2V611.4z M722.7,433.2h133.6v133.6H722.7V433.2z M678.2,321.8h222.7V99.1H678.2V321.8z M722.7,143.6h133.6v133.6H722.7V143.6z M388.6,900.9h222.7V678.2H388.6V900.9z M433.2,722.7h133.6v133.6H433.2V722.7z M388.6,611.4h222.7V388.6H388.6V611.4z M433.2,433.2h133.6v133.6H433.2V433.2z"/></g>
</svg>